<svg xmlns="http://www.w3.org/2000/svg" data-name="Layer 1" width="744.84799" height="747.07702" viewBox="0 0 744.84799 747.07702" xmlns:xlink="http://www.w3.org/1999/xlink">
  <path d="M299.205,705.80851l-6.56-25.872a335.96693,335.96693,0,0,0-35.643-12.788l-.828,12.024-3.358-13.247c-15.021-4.29394-25.24-6.183-25.24-6.183s13.8,52.489,42.754,92.617l33.734,5.926-26.207,3.779a135.92592,135.92592,0,0,0,11.719,12.422c42.115,39.092,89.024,57.028,104.773,40.06s-5.625-62.412-47.74-101.5c-13.056-12.119-29.457-21.844-45.875-29.5Z" fill="#f2f2f2"/>
  <path d="M384.557,691.34851l7.758-24.996a335.96693,335.96693,0,0,0-23.9-29.371l-6.924,9.865,4.556-12.917c-10.832-11.245-18.366-18.582-18.366-18.582s-15.726,51.838-9.713,103.528l29.253,22.61L339.9,736.62751a135.92592,135.92592,0,0,0,3.966,16.766c23.544,52.054,62.901,84.221,87.712,71.949s28.324-57.942,4.779-109.996c-7.289-16.126-19.118-31.529-32.079-45.4Z" fill="#f2f2f2"/>
  <!-- Rest of the SVG path data... -->
</svg>
